<svg width="42px" height="41px" viewBox="0 0 42 41">
    <g id="Page-1" stroke="none" stroke-width="1" fill="none" fill-rule="evenodd">
        <path d="M3.96768832,15.9845674 C5.30942911,14.6857505 10.0648528,10.3341828 18.2339593,2.92986426 C19.7728076,1.63965607 20.9324092,0.994551968 21.7127642,0.994551968 C22.4931191,0.994551968 23.5980393,1.63965607 25.0275248,2.92986426 L40.5035504,16.6687014 C41.2739655,17.3378649 41.5811841,18.2435856 41.4252062,19.3858636 C41.4005647,19.5663214 41.2177565,20.3867133 40.5035504,20.7216336 C40.027413,20.9449138 39.2476256,20.9449138 38.1641884,20.7216336 L38.1641884,38.2658625 C37.682002,39.5251989 35.778389,40.1548672 32.4533495,40.1548672 C29.12831,40.1548672 27.2178284,39.5251989 26.7219048,38.2658625 L26.7219048,25.76001 L17.5058225,25.76001 L17.5058225,38.2658625 C17.0294714,39.5251989 15.0545721,40.1548672 11.5811248,40.1548672 C8.1076774,40.1548672 6.37095372,39.5251989 6.37095372,38.2658625 L6.37095372,20.5978634 C5.30795074,20.9838647 4.56972053,21.1927643 4.15626309,21.224562 C3.11934224,21.3043085 2.35631367,21.028469 1.83975167,20.7216336 C1.12891374,20.2993993 0.920293655,19.7021989 1.2138914,18.9300326 C2.36291562,17.6312567 3.28084792,16.6494349 3.96768832,15.9845674 Z" id="Path-2" stroke="var(--darkgrey)" fill="var(--darkgrey)"></path>
    </g>
</svg>
